<svg xmlns="http://www.w3.org/2000/svg" width="144.083" height="144" id="youtube"><path d="M72.041 11.166c-33.543 0-60.833 27.29-60.833 60.834s27.29 60.834 60.833 60.834c33.544 0 60.835-27.29 60.835-60.834s-27.292-60.834-60.835-60.834zm0 115.668c-30.235 0-54.833-24.599-54.833-54.834s24.598-54.834 54.833-54.834S126.876 41.765 126.876 72s-24.6 54.834-54.835 54.834z"></path><path d="M96.375 50.418s-6.875-1-24.75-1c-17.938 0-24.251 1-24.251 1a8.05 8.05 0 0 0-8.051 8.05v26.563a8.05 8.05 0 0 0 8.051 8.049s6.313 1 24.271 1c17.854 0 24.729-1 24.729-1a8.051 8.051 0 0 0 8.051-8.049V58.468a8.05 8.05 0 0 0-8.05-8.05zM62.019 84.496v-25.35L83.973 71.82 62.019 84.496z"></path></svg>