<svg xmlns="http://www.w3.org/2000/svg" width="24" height="24" fill="none" viewBox="0 0 24 24" id="subscription"><path fill="#000" fill-rule="evenodd" d="M1.25 9C1.25 8.0335 2.0335 7.25 3 7.25H21C21.9665 7.25 22.75 8.0335 22.75 9V20C22.75 20.9665 21.9665 21.75 21 21.75H19.5C19.0858 21.75 18.75 21.4142 18.75 21C18.75 20.5858 19.0858 20.25 19.5 20.25H21C21.1381 20.25 21.25 20.1381 21.25 20V9C21.25 8.86193 21.1381 8.75 21 8.75H3C2.86193 8.75 2.75 8.86193 2.75 9V20C2.75 20.1381 2.86193 20.25 3 20.25H15.5C15.9142 20.25 16.25 20.5858 16.25 21C16.25 21.4142 15.9142 21.75 15.5 21.75H3C2.0335 21.75 1.25 20.9665 1.25 20V9Z" clip-rule="evenodd"></path><path fill="#000" fill-rule="evenodd" d="M9.65364 10.3348C9.90169 10.2056 10.201 10.2252 10.4301 10.3856L15.4301 13.8856C15.6306 14.0259 15.75 14.2553 15.75 14.5 15.75 14.7447 15.6306 14.9741 15.4301 15.1144L10.4301 18.6144C10.201 18.7748 9.90169 18.7944 9.65364 18.6652 9.40559 18.5361 9.25 18.2797 9.25 18V11C9.25 10.7203 9.40559 10.4639 9.65364 10.3348zM10.75 12.4405V16.5595L13.6922 14.5 10.75 12.4405zM3.25 5.5C3.25 5.08579 3.58579 4.75 4 4.75H20C20.4142 4.75 20.75 5.08579 20.75 5.5 20.75 5.91421 20.4142 6.25 20 6.25H4C3.58579 6.25 3.25 5.91421 3.25 5.5zM5.25 3C5.25 2.58579 5.58579 2.25 6 2.25H18C18.4142 2.25 18.75 2.58579 18.75 3 18.75 3.41421 18.4142 3.75 18 3.75H6C5.58579 3.75 5.25 3.41421 5.25 3z" clip-rule="evenodd"></path></svg>