<svg xmlns="http://www.w3.org/2000/svg" viewBox="0 0 48 48" id="video-folder"><path d="M41,11H21.57L20.45,8.69A3,3,0,0,0,17.75,7H7a3,3,0,0,0-3,3V38a3,3,0,0,0,3,3H41a3,3,0,0,0,3-3V14A3,3,0,0,0,41,11Zm1,27a1,1,0,0,1-1,1H7a1,1,0,0,1-1-1V10A1,1,0,0,1,7,9H17.75a1,1,0,0,1,.9.56l2.79,5.75A3,3,0,0,0,24.14,17H39a1,1,0,0,0,0-2H24.14a1,1,0,0,1-.9-.56L22.54,13H41a1,1,0,0,1,1,1ZM29.85,25.74,21,20.92a2,2,0,0,0-2,0,2,2,0,0,0-1,1.72v9.64A2,2,0,0,0,19,34a2,2,0,0,0,1,.28,2,2,0,0,0,.95-.24l8.9-4.82a2,2,0,0,0,0-3.52ZM20,32.32V22.68l8.9,4.82Z" data-name="08 Video Folder"></path></svg>